Patient4_TMGait_0pt3_01_left_24_GRF.mot
version=1
nRows=32
nColumns=19
inDegrees=no
endheader
time	F1x	F1y	F1z	M1x	M1y	M1z	F2x	F2y	F2z	M2x	M2y	M2z	EC1x	EC1y	EC1z	EC2x	EC2y	EC2z
44.99	3.7146	-2.3185	1.6776	0.6269	-0.43446	-2.2787	-30.906	810.7008	-60.6426	259.2427	72.6572	815.51	-0.0592	0.0182	-0.0073	-0.0462	0.0165	0.9585
45.0091	2.451	-1.4956	1.2309	0.41402	-0.38517	-1.4588	-27.7943	832.894	-58.7182	266.3703	70.2387	834.46	-0.0592	0.0182	-0.0073	-0.0462	0.0165	0.9585
45.0281	1.3681	-0.79065	0.85092	0.22318	-0.36326	-0.74827	-24.7727	855.4121	-56.4869	273.7823	67.3936	853.0583	-0.0592	0.0182	-0.0073	-0.0462	0.0165	0.9585
45.0472	0.53323	-0.2373	0.56352	0.067458	-0.36678	-0.18215	-22.0954	875.5813	-54.0493	280.5905	64.253	868.8641	-0.0592	0.0182	-0.0073	-0.0462	0.0165	0.9585
45.0663	-0.052468	0.16472	0.369	-0.049494	-0.38933	0.23458	-19.8802	890.9174	-51.5292	285.919	60.9574	879.6473	-0.0592	0.0182	-0.0073	-0.0462	0.0165	0.9585
45.0854	-0.42743	0.42466	0.25642	-0.12697	-0.42525	0.51452	-18.1102	899.5184	-49.069	289.0668	57.6433	883.7197	-0.0592	0.0182	-0.0073	-0.0462	0.0165	0.9585
45.1044	-0.64582	0.54977	0.20925	-0.16318	-0.46984	0.6644	-16.6414	900.3478	-46.7896	289.6316	54.4094	880.1775	-0.0592	0.0182	-0.0073	-0.0462	0.0165	0.9585
45.1235	-0.7603	0.53903	0.20817	-0.1532	-0.5224	0.67582	-15.2403	893.3138	-44.763	287.551	51.2951	868.9757	-0.0592	0.0182	-0.0073	-0.0462	0.0165	0.9585
45.1426	-0.81601	0.37963	0.23786	-0.089021	-0.5857	0.53027	-13.6457	879.1766	-43	283.0752	48.2787	850.8455	-0.0592	0.0182	-0.0073	-0.0462	0.0165	0.9585
45.1616	-0.84754	0.048864	0.28688	0.041119	-0.66057	0.19907	-11.6383	859.3189	-41.4652	276.6841	45.3059	827.0918	-0.0592	0.0182	-0.0073	-0.0462	0.0165	0.9585
45.1807	-0.87373	-0.47779	0.34331	0.25038	-0.74316	-0.34752	-9.0695	835.4657	-40.1058	268.9853	42.324	799.3392	-0.0592	0.0182	-0.0073	-0.0462	0.0165	0.9585
45.1998	-0.90223	-1.2202	0.39263	0.54653	-0.82111	-1.1294	-5.8577	809.4482	-38.8676	260.6271	39.2929	769.3124	-0.0592	0.0182	-0.0073	-0.0462	0.0165	0.9585
45.2189	-0.92853	-2.1758	0.41367	0.92609	-0.86818	-2.1424	-1.9812	783.0632	-37.7011	252.2448	36.1863	738.7052	-0.0592	0.0182	-0.0073	-0.0462	0.0165	0.9585
45.2379	-0.93251	-3.2895	0.37826	1.3641	-0.84461	-3.3291	2.5296	758.0093	-36.5709	244.4326	32.995	709.1228	-0.0592	0.0182	-0.0073	-0.0462	0.0165	0.9585
45.257	-0.87785	-4.4178	0.25307	1.8005	-0.70003	-4.5391	7.5911	735.863	-35.4681	237.7271	29.7387	682.072	-0.0592	0.0182	-0.0073	-0.0462	0.0165	0.9585
45.2761	-0.70995	-5.2937	-0.0012598	2.1244	-0.37331	-5.4929	13.0626	718.042	-34.4194	232.5884	26.4728	658.9281	-0.0592	0.0182	-0.0073	-0.0462	0.0165	0.9585
45.2951	-0.35855	-5.4858	-0.42352	2.1579	0.20412	-5.7467	18.7538	705.7154	-33.4922	229.3649	23.2962	640.8539	-0.0592	0.0182	-0.0073	-0.0462	0.0165	0.9585
45.3142	0.25342	-4.3615	-1.0435	1.6441	1.0948	-4.6527	24.4302	699.5867	-32.798	228.2197	20.3573	628.6202	-0.0592	0.0182	-0.0073	-0.0462	0.0165	0.9585
45.3333	1.1987	-1.0871	-1.8676	0.24806	2.3344	-1.3513	29.7868	699.5437	-32.482	229.0203	17.853	622.2994	-0.0592	0.0182	-0.0073	-0.0462	0.0165	0.9585
45.3524	2.5232	5.3237	-2.8545	-2.4229	3.8972	5.1851	34.4451	704.3863	-32.6829	231.267	16.0043	621.0163	-0.0592	0.0182	-0.0073	-0.0462	0.0165	0.9585
45.3714	4.2115	15.8846	-3.8815	-6.766	5.6464	16.0279	38.0078	711.8638	-33.4678	234.1297	14.9911	622.961	-0.0592	0.0182	-0.0073	-0.0462	0.0165	0.9585
45.3905	6.1385	31.3912	-4.7097	-13.081	7.2775	32.0354	40.1481	719.0069	-34.7875	236.578	14.8861	625.6494	-0.0592	0.0182	-0.0073	-0.0462	0.0165	0.9585
45.4096	7.9948	52.0437	-4.9592	-21.4158	8.2593	53.4623	40.7132	722.6905	-36.4696	237.5768	15.6088	626.3808	-0.0592	0.0182	-0.0073	-0.0462	0.0165	0.9585
45.4286	9.2308	77.0216	-4.1936	-31.3986	7.9011	79.525	39.7819	720.2503	-38.2614	236.2882	16.9397	622.7603	-0.0592	0.0182	-0.0073	-0.0462	0.0165	0.9585
45.4477	9.3376	104.172	-2.1017	-42.1307	5.6662	108.0666	37.6532	710.0415	-39.9	232.244	18.5814	613.1859	-0.0592	0.0182	-0.0073	-0.0462	0.0165	0.9585
45.4668	8.3022	130.8577	1.1161	-52.5573	1.7661	136.3641	34.7892	691.9403	-41.1684	225.4964	20.2182	597.3042	-0.0592	0.0182	-0.0073	-0.0462	0.0165	0.9585
45.4859	6.2922	155.8469	4.9083	-62.2101	-3.1425	163.1368	31.7058	667.3771	-41.9237	216.6113	21.5742	576.0817	-0.0592	0.0182	-0.0073	-0.0462	0.0165	0.9585
45.5049	3.3859	179.6661	8.7797	-71.3204	-8.5027	188.953	28.8403	638.7075	-42.0787	206.4441	22.4393	551.32	-0.0592	0.0182	-0.0073	-0.0462	0.0165	0.9585
45.524	-0.32109	203.4199	12.3931	-80.3446	-13.9159	214.9678	26.4498	608.2834	-41.5751	195.8264	22.6834	524.9023	-0.0592	0.0182	-0.0073	-0.0462	0.0165	0.9585
45.5431	-4.6493	227.9	15.5696	-89.6104	-19.1094	241.9566	24.593	577.7766	-40.4161	185.3389	22.2876	498.2156	-0.0592	0.0182	-0.0073	-0.0462	0.0165	0.9585
45.5621	-9.3063	253.3845	18.2732	-99.2388	-23.9126	270.0977	23.1906	547.9596	-38.7084	175.2422	21.3579	471.9352	-0.0592	0.0182	-0.0073	-0.0462	0.0165	0.9585
45.5812	-13.8872	279.7171	20.5595	-109.1748	-28.2127	299.0637	22.0974	518.8788	-36.6352	165.542	20.0812	446.1423	-0.0592	0.0182	-0.0073	-0.0462	0.0165	0.9585
